<?xml version="1.0" encoding="utf-8"?>
<!-- Generator: Adobe Illustrator 27.4.1, SVG Export Plug-In . SVG Version: 6.00 Build 0)  -->
<svg version="1.1" id="Layer_1" xmlns="http://www.w3.org/2000/svg" xmlns:xlink="http://www.w3.org/1999/xlink" x="0px" y="0px"
	 viewBox="0 0 1600 1467" style="enable-background:new 0 0 1600 1467;" xml:space="preserve">
<style type="text/css">
	.st0{fill-rule:evenodd;clip-rule:evenodd;fill:#F2F2F2;}
	.st1{fill:#FFFFFF;}
	.st2{fill:#ECECEC;}
	.st3{fill:#EDEDED;}
	.st4{fill:#E1E1E1;}
	.st5{opacity:0.6;fill:#E1E1E1;}
	.st6{opacity:0.6;}
</style>
<g id="Vector-ShieldPattern">
	<rect class="st0" width="1600" height="1467"/>
	<g id="Group" transform="translate(263.000000, -44.000000)">
		<path id="Shape" class="st1" d="M166.4,36.5v115.4c0,10.5-2.4,18.2-7.7,25.1c-5.7,7.3-14.9,14.2-28.3,20.8l-28.9,14.5l-29-14.5
			c-13.4-6.7-22.6-13.5-28.3-20.8c-5.3-6.9-7.7-14.7-7.7-25.1V36.5H166.4z M203,0H0v151.8c0,38.3,21.7,61.4,56.1,78.6l45.4,22.6
			l45.4-22.6c34.4-17.1,56.1-40.3,56.1-78.6L203,0L203,0L203,0z"/>
	</g>
	<g id="Group_00000174591478900331194780000001412332522077530018_" transform="translate(560.000000, 533.000000)">
		<path id="Shape_00000127039261935121119010000008025562235192124062_" class="st2" d="M166.4,36.5v115.4c0,10.5-2.4,18.2-7.7,25.1
			c-5.7,7.3-14.9,14.2-28.3,20.8l-28.9,14.5l-29-14.5c-13.4-6.7-22.6-13.5-28.3-20.8c-5.3-6.9-7.7-14.7-7.7-25.1V36.5H166.4z M203,0
			H0v151.8c0,38.3,21.7,61.4,56.1,78.6l45.4,22.6l45.4-22.6c34.4-17.1,56.1-40.3,56.1-78.6L203,0L203,0L203,0z"/>
	</g>
	<g id="Group_00000080192587622722685220000004308894604763844265_" transform="translate(1328.000000, -44.000000)">
		<path id="Shape_00000152259355187985177250000011986699030757708695_" class="st1" d="M166.4,36.5v115.4c0,10.5-2.4,18.2-7.7,25.1
			c-5.7,7.3-14.9,14.2-28.3,20.8l-28.9,14.5l-29-14.5c-13.4-6.7-22.6-13.5-28.3-20.8c-5.3-6.9-7.7-14.7-7.7-25.1V36.5H166.4z M203,0
			H0v151.8c0,38.3,21.7,61.4,56.1,78.6l45.4,22.6l45.4-22.6c34.4-17.1,56.1-40.3,56.1-78.6L203,0L203,0L203,0z"/>
	</g>
	<g id="Group_00000182502970632223594180000004724871383806262170_" transform="translate(874.000000, 1228.000000)">
		<path id="Shape_00000062910357807599972880000002305677766673372303_" class="st2" d="M166.4,36.5v115.4c0,10.5-2.4,18.2-7.7,25.1
			c-5.7,7.3-14.9,14.2-28.3,20.8l-28.9,14.5l-29-14.5c-13.4-6.7-22.6-13.5-28.3-20.8c-5.3-6.9-7.7-14.7-7.7-25.1V36.5H166.4z M203,0
			H0v151.8c0,38.3,21.7,61.4,56.1,78.6l45.4,22.6l45.4-22.6c34.4-17.1,56.1-40.3,56.1-78.6L203,0L203,0L203,0z"/>
	</g>
	<g id="Group_00000166666119602728123520000013841726920188335550_" transform="translate(161.000000, 453.000000)">
		<path id="Shape_00000113345342214419471280000000958207378333735851_" class="st3" d="M104.9,23.1v73c0,6.6-1.5,11.5-4.9,15.9
			c-3.6,4.6-9.4,9-17.8,13.2L64,134.3l-18.3-9.2c-8.4-4.2-14.2-8.5-17.8-13.2c-3.4-4.4-4.9-9.3-4.9-15.9v-73H104.9z M128,0H0v96
			c0,24.2,13.7,38.9,35.4,49.7L64,160l28.6-14.3c21.7-10.8,35.4-25.5,35.4-49.7L128,0L128,0L128,0z"/>
	</g>
	<g id="Group_00000008839037812684398940000002452024544504891562_" transform="translate(1217.000000, 453.000000)">
		<path id="Shape_00000141436839132183611830000007369550144062676126_" class="st3" d="M104.9,23.1v73c0,6.6-1.5,11.5-4.9,15.9
			c-3.6,4.6-9.4,9-17.8,13.2L64,134.3l-18.3-9.2c-8.4-4.2-14.2-8.5-17.8-13.2c-3.4-4.4-4.9-9.3-4.9-15.9v-73H104.9z M128,0H0v96
			c0,24.2,13.7,38.9,35.4,49.7L64,160l28.6-14.3c21.7-10.8,35.4-25.5,35.4-49.7L128,0L128,0L128,0z"/>
	</g>
	<g id="Group_00000103234625730602143770000011565239101109607084_" transform="translate(1011.000000, 107.000000)">
		<path id="Shape_00000110444324778787335560000009370501799773437578_" class="st4" d="M104.9,23.1v73c0,6.6-1.5,11.5-4.9,15.9
			c-3.6,4.6-9.4,9-17.8,13.2L64,134.3l-18.3-9.2c-8.4-4.2-14.2-8.5-17.8-13.2c-3.4-4.4-4.9-9.3-4.9-15.9v-73H104.9z M128,0H0v96
			c0,24.2,13.7,38.9,35.4,49.7L64,160l28.6-14.3c21.7-10.8,35.4-25.5,35.4-49.7L128,0L128,0L128,0z"/>
	</g>
	<g id="Group_00000054234117799014915810000009525319813261995185_" transform="translate(-40.000000, 107.000000)">
		<path id="Shape_00000025410332408107973390000014897311158415607683_" class="st4" d="M104.9,23.1v73c0,6.6-1.5,11.5-4.9,15.9
			c-3.6,4.6-9.4,9-17.8,13.2L64,134.3l-18.3-9.2c-8.4-4.2-14.2-8.5-17.8-13.2c-3.4-4.4-4.9-9.3-4.9-15.9v-73H104.9z M128,0H0v96
			c0,24.2,13.7,38.9,35.4,49.7L64,160l28.6-14.3c21.7-10.8,35.4-25.5,35.4-49.7L128,0L128,0L128,0z"/>
	</g>
	<g id="Group_00000111901170518836047150000014857061893326453384_" transform="translate(263.000000, 806.000000)">
		<path id="Shape_00000054958282260981459000000003151605240972560559_" class="st5" d="M104.9,23.1v73c0,6.6-1.5,11.5-4.9,15.9
			c-3.6,4.6-9.4,9-17.8,13.2L64,134.3l-18.3-9.2c-8.4-4.2-14.2-8.5-17.8-13.2c-3.4-4.4-4.9-9.3-4.9-15.9v-73H104.9z M128,0H0v96
			c0,24.2,13.7,38.9,35.4,49.7L64,160l28.6-14.3c21.7-10.8,35.4-25.5,35.4-49.7L128,0L128,0L128,0z"/>
	</g>
	<g id="Group_00000132779885155390177020000000894157292829904516_" transform="translate(1319.000000, 806.000000)" class="st6">
		<path id="Shape_00000070798313789057035350000000539698848770187199_" class="st4" d="M104.9,23.1v73c0,6.6-1.5,11.5-4.9,15.9
			c-3.6,4.6-9.4,9-17.8,13.2L64,134.3l-18.3-9.2c-8.4-4.2-14.2-8.5-17.8-13.2c-3.4-4.4-4.9-9.3-4.9-15.9v-73H104.9z M128,0H0v96
			c0,24.2,13.7,38.9,35.4,49.7L64,160l28.6-14.3c21.7-10.8,35.4-25.5,35.4-49.7L128,0L128,0L128,0z"/>
	</g>
	<g id="Group_00000090259793649244311840000010688943056138127265_" transform="translate(466.000000, 1135.000000)">
		<path id="Shape_00000069398276220808951180000002750748840425836219_" class="st3" d="M104.9,23.1v73c0,6.6-1.5,11.5-4.9,15.9
			c-3.6,4.6-9.4,9-17.8,13.2L64,134.3l-18.3-9.2c-8.4-4.2-14.2-8.5-17.8-13.2c-3.4-4.4-4.9-9.3-4.9-15.9v-73H104.9z M128,0H0v96
			c0,24.2,13.7,38.9,35.4,49.7L64,160l28.6-14.3c21.7-10.8,35.4-25.5,35.4-49.7L128,0L128,0L128,0z"/>
	</g>
	<g id="Group_00000095322970746282547420000005542194669890215330_" transform="translate(800.000000, 973.000000)">
		<path id="Shape_00000002353718432473813370000008607450536266305423_" class="st4" d="M70.5,15.6v49.2c0,4.5-1,7.8-3.3,10.7
			c-2.4,3.1-6.3,6.1-12,8.9L43,90.6l-12.3-6.2c-5.7-2.8-9.6-5.8-12-8.9c-2.3-3-3.3-6.3-3.3-10.7V15.6H70.5z M86,0H0v64.8
			C0,81.2,9.2,91,23.8,98.3L43,108l19.2-9.7C76.7,91,86,81.2,86,64.8L86,0L86,0L86,0z"/>
	</g>
	<g id="Group_00000172419846830245749370000007493366955730513584_" transform="translate(487.000000, 291.000000)">
		<path id="Shape_00000040561029133330552650000016418112901302422952_" class="st4" d="M70.5,15.6v49.2c0,4.5-1,7.8-3.3,10.7
			c-2.4,3.1-6.3,6.1-12,8.9L43,90.6l-12.3-6.2c-5.7-2.8-9.6-5.8-12-8.9c-2.3-3-3.3-6.3-3.3-10.7V15.6H70.5z M86,0H0v64.8
			C0,81.2,9.2,91,23.8,98.3L43,108l19.2-9.7C76.7,91,86,81.2,86,64.8L86,0L86,0L86,0z"/>
	</g>
	<g id="Group_00000019643039144022856990000012686711192677315232_" transform="translate(733.000000, 104.000000)">
		<path id="Shape_00000170984568418080240410000001167891359017676198_" class="st3" d="M70.5,15.6v49.2c0,4.5-1,7.8-3.3,10.7
			c-2.4,3.1-6.3,6.1-12,8.9L43,90.6l-12.3-6.2c-5.7-2.8-9.6-5.8-12-8.9c-2.3-3-3.3-6.3-3.3-10.7V15.6H70.5z M86,0H0v64.8
			C0,81.2,9.2,91,23.8,98.3L43,108l19.2-9.7C76.7,91,86,81.2,86,64.8L86,0L86,0L86,0z"/>
	</g>
	<g id="Group_00000126283280550705787630000006115929380649987226_" transform="translate(1547.000000, 291.000000)">
		<path id="Shape_00000018935293067663419530000010522485394926185406_" class="st3" d="M70.5,15.6v49.2c0,4.5-1,7.8-3.3,10.7
			c-2.4,3.1-6.3,6.1-12,8.9L43,90.6l-12.3-6.2c-5.7-2.8-9.6-5.8-12-8.9c-2.3-3-3.3-6.3-3.3-10.7V15.6H70.5z M86,0H0v64.8
			C0,81.2,9.2,91,23.8,98.3L43,108l19.2-9.7C76.7,91,86,81.2,86,64.8L86,0L86,0L86,0z"/>
	</g>
	<g id="Group_00000099652600754856570670000011243720152826042813_" transform="translate(-13.000000, 1228.000000)">
		<path id="Shape_00000068676835468942394590000016495295537285467011_" class="st2" d="M166.4,36.5v115.4c0,10.5-2.4,18.2-7.7,25.1
			c-5.7,7.3-14.9,14.2-28.3,20.8l-28.9,14.5l-29-14.5c-13.4-6.7-22.6-13.5-28.3-20.8c-5.3-6.9-7.7-14.7-7.7-25.1V36.5H166.4z M203,0
			H0v151.8c0,38.3,21.7,61.4,56.1,78.6l45.4,22.6l45.4-22.6c34.4-17.1,56.1-40.3,56.1-78.6L203,0L203,0L203,0z"/>
	</g>
</g>
</svg>
